<?xml version="1.0" encoding="utf-8"?>
<!-- Generator: Adobe Illustrator 15.0.0, SVG Export Plug-In . SVG Version: 6.00 Build 0)  -->
<!DOCTYPE svg PUBLIC "-//W3C//DTD SVG 1.1//EN" "http://www.w3.org/Graphics/SVG/1.1/DTD/svg11.dtd">
<svg version="1.1" id="Capa_1" xmlns="http://www.w3.org/2000/svg" xmlns:xlink="http://www.w3.org/1999/xlink" x="0px" y="0px"
	 width="512px" height="512px" viewBox="0 0 512 512" enable-background="new 0 0 512 512" xml:space="preserve">
<g>
	<g>
		<polygon fill="#1F8C4A" points="266.666,107.349 266.666,263.467 377.835,328.98 388.65,310.613 288,250.752 288,107.349 		"/>
		<path fill="#1F8C4A" d="M92.607,362.773H68.31c38.847,75.925,117.867,127.894,209.024,127.894C406.934,490.667,512,385.6,512,256
			c0-129.601-105.066-234.667-234.666-234.667c-115.03,0-210.731,82.773-230.806,192H0l53.333,64l53.333-64h-38.4
			C88.042,115.968,174.123,42.667,277.334,42.667c117.824,0,213.333,95.51,213.333,213.333
			c0,117.824-95.509,213.333-213.333,213.333C198.421,469.333,129.493,426.475,92.607,362.773z"/>
	</g>
</g>
</svg>
